<?xml version="1.0" encoding="utf-8"?>
<!-- Generator: Adobe Illustrator 16.0.0, SVG Export Plug-In . SVG Version: 6.00 Build 0)  -->
<!DOCTYPE svg PUBLIC "-//W3C//DTD SVG 1.1//EN" "http://www.w3.org/Graphics/SVG/1.1/DTD/svg11.dtd">
<svg version="1.1" id="Layer_1" xmlns="http://www.w3.org/2000/svg" xmlns:xlink="http://www.w3.org/1999/xlink" x="0px" y="0px"
	 width="207.553px" height="207px" viewBox="0 0 207.553 207" enable-background="new 0 0 207.553 207" xml:space="preserve">
<g>
	<defs>
		<rect id="SVGID_1_" width="207.552" height="207"/>
	</defs>
	<clipPath id="SVGID_2_">
		<use xlink:href="#SVGID_1_"  overflow="visible"/>
	</clipPath>
	<path clip-path="url(#SVGID_2_)" fill="#FFFFFF" d="M2.275,206.682h5.191v-31.699H2.275V206.682z M39.298,198.653l-17.862-23.67
		h-5.191v31.699h5.191v-23.133l17.42,23.133h5.631v-31.699h-5.189V198.653z M86.589,199.471l3.08,7.211h5.54l-13.547-31.699h-5.544
		l-13.549,31.699h5.544l3.08-7.211H86.589z M73.3,194.528l5.588-13.059l5.588,13.059H73.3z M135.636,203.735
		c1.469-1.691,2.202-3.645,2.202-5.852c0-1.996-0.563-3.664-1.694-5.01c-1.127-1.346-2.647-2.23-4.554-2.652
		c0.529-0.244,0.896-0.418,1.101-0.521c0.205-0.107,0.587-0.371,1.142-0.793c1.527-1.213,2.291-3.055,2.291-5.535
		c0-2.055-0.705-3.896-2.115-5.531c-0.73-0.877-1.852-1.574-3.361-2.086c-1.512-0.514-3.309-0.771-5.391-0.771h-11.965v31.699
		h13.459C130.945,206.682,133.906,205.7,135.636,203.735 M118.483,179.926h6.64c1.904,0,3.313,0.332,4.226,0.996
		c0.907,0.664,1.362,1.756,1.362,3.268c0,2.631-1.879,3.943-5.631,3.943h-6.597V179.926z M118.483,193.075h7.478
		c4.371,0,6.555,1.41,6.555,4.221c0,1.723-0.508,2.896-1.52,3.514c-1.012,0.621-2.469,0.93-4.375,0.93h-8.138V193.075z
		 M169.58,190.602c0,3.191-1.047,5.906-3.143,8.146c-2.098,2.238-4.671,3.354-7.721,3.354c-3.049,0-5.627-1.115-7.721-3.354
		c-2.098-2.24-3.146-4.955-3.146-8.146c0-3.188,1.049-5.9,3.146-8.135c2.094-2.24,4.672-3.355,7.721-3.355
		c3.05,0,5.623,1.115,7.721,3.355C168.533,184.702,169.58,187.415,169.58,190.602 M174.905,190.602c0-4.67-1.557-8.566-4.663-11.699
		c-3.111-3.125-6.953-4.691-11.525-4.691c-4.575,0-8.42,1.566-11.524,4.691c-3.112,3.133-4.665,7.029-4.665,11.699
		c0,4.676,1.553,8.574,4.665,11.705c3.104,3.127,6.949,4.693,11.524,4.693c4.572,0,8.414-1.566,11.525-4.693
		C173.349,199.176,174.905,195.278,174.905,190.602 M205.276,206.682l-10.558-16.279l9.812-15.42h-6.426l-6.862,10.701h-0.22
		l-6.864-10.701h-6.418l9.809,15.42l-10.557,16.279h6.463l7.567-11.928h0.22l7.567,11.928H205.276z"/>
	<path clip-path="url(#SVGID_2_)" fill="#FFFFFF" d="M68.834,42.988H46.841v66.03h10.813V89.654h11.364
		c9.407,0,16.387-1.856,20.939-5.571c4.553-3.718,6.828-9.573,6.828-17.57c0-7.998-2.231-13.92-6.69-17.761
		C85.633,44.91,78.548,42.988,68.834,42.988 M70.21,79.549H57.654V53.098h10.999c5.862,0,10.171,0.943,12.918,2.832
		c2.751,1.891,4.126,5.118,4.126,9.686c0,4.563-1.086,8.027-3.255,10.389C80.274,78.367,76.197,79.549,70.21,79.549 M156.584,48.09
		c-4.215-3.401-11.21-5.102-20.982-5.102h-23.824v66.03h10.812V86.822h14.204l15.305,22.196h13.744l-16.77-23.992
		c9.225-2.836,13.836-9.696,13.836-20.594C162.908,56.939,160.801,51.49,156.584,48.09 M136.061,76.714h-13.472V53.098h13.745
		c5.803,0,9.836,0.801,12.098,2.406c2.26,1.608,3.389,4.568,3.389,8.881c0,4.316-1.098,7.447-3.297,9.4
		C146.322,75.738,142.168,76.714,136.061,76.714"/>
</g>
<path fill="#FFFFFF" d="M5.521,5.803h196.512V139.11H5.521V5.803z M0,144.917h207.553V0H0V144.917z"/>
<polygon fill="#FFFFFF" points="199.439,165.575 199.439,169.952 198.593,169.952 198.593,165.575 197.068,165.575 197.068,164.774 
	200.963,164.774 200.963,165.575 "/>
<polygon fill="#FFFFFF" points="206.238,164.774 204.722,168.026 203.205,164.774 201.884,164.774 201.884,169.954 202.731,169.954 
	202.731,165.907 204.478,169.5 204.951,169.5 206.703,165.907 206.703,169.954 207.553,169.954 207.553,164.774 "/>
</svg>
